<svg xmlns="http://www.w3.org/2000/svg" xmlns:xlink="http://www.w3.org/1999/xlink" width="32" height="32" viewBox="0 0 32 32" fill="#ffffff">
<defs>
    <linearGradient id="gradient" x1="0" x2="0" y1="0" y2="1">
      <stop offset="0%" stop-color="#ff51f9" />
      <stop offset="50%" stop-color="#a348ff" />
      <stop offset="100%" stop-color="#3978ff" />
    </linearGradient>
  </defs>
  <rect x="0" y="0" width="32" height="32" rx="8" ry="8" fill="url(#gradient)" />
  <path d="M14.515625 1c-1.6875.164063-3.292969.605469-4.773437 1.28125l1.65625 2.867188c.980468-.414063 2.027343-.695313 3.117187-.832032M1.003906 14.511719h3.316407c.136718-1.089844.417968-2.136719.832031-3.113281l-2.867188-1.65625c-.675781 1.476562-1.121093 3.082031-1.28125 4.769531m28.644532-4.769531-2.867188 1.65625c.414063.976562.695313 2.023437.832031 3.113281h3.316407c-.160157-1.6875-.605469-3.292969-1.28125-4.769531M6.609375 8.886719c.652344-.859375 1.417969-1.625 2.277344-2.277344l-1.65625-2.871094c-1.34375.964844-2.523438 2.144532-3.492188 3.488282M22.191406 2.28125C20.710938 1.605469 19.105469 1.160156 17.417969 1v3.320313c1.089844.132812 2.136719.414062 3.117187.832031m7.078125 12.261719c-.71875 5.792968-5.664062 10.289062-11.648437 10.289062-5.980469 0-10.925781-4.496094-11.644531-10.289062H1.003906C1.734375 25.027344 8.167969 31 15.964844 31c7.800781 0 14.234375-5.972656 14.964844-13.585937M23.042969 6.605469c.859375.652344 1.628906 1.421875 2.28125 2.28125l2.867187-1.65625c-.960937-1.347656-2.144531-2.527344-3.488281-3.492188" />
  <path d="m23.042969 8.886719-6.027344 4.457031c-.324219-.128906-.679687-.203125-1.046875-.203125-1.5625 0-2.824219 1.265625-2.824219 2.824219 0 1.558594 1.261719 2.820312 2.824219 2.820312 1.554688 0 2.820313-1.261718 2.820313-2.820312 0-.371094-.074219-.726563-.203125-1.050781"/>
</svg>